<svg width="500" height="500" viewBox="0 0 500 500" fill="none" xmlns="http://www.w3.org/2000/svg">
<rect width="500" height="500" fill="#13529C"/>
<path d="M369.998 202V184C369.998 170.745 359.253 160 345.998 160H153.999C140.745 160 130 170.745 130 184V196C130 209.255 140.745 220 153.999 220H351.998C361.939 220 369.998 228.059 369.998 238V256C369.998 269.255 380.743 280 393.998 280H399.998C408.278 280 415.778 283.36 421.208 288.79C426.728 294.31 430.103 301.96 429.998 310.39C429.788 326.935 415.763 340 399.218 340H393.998C380.743 340 369.998 350.745 369.998 364V382C369.998 391.941 361.939 400 351.998 400H147.999C138.058 400 130 391.941 130 382V364C130 350.745 119.255 340 106 340H87.9999C78.0588 340 70 331.941 70 322V298C70 288.059 78.0588 280 87.9999 280H112C121.941 280 130 288.059 130 298V316C130 329.255 140.745 340 153.999 340H345.998C359.253 340 369.998 329.255 369.998 316V304C369.998 290.745 359.253 280 345.998 280H147.999C138.058 280 130 271.941 130 262V244C130 230.745 119.255 220 106 220H87.9999C78.0588 220 70 211.941 70 202V178C70 168.059 78.0588 160 87.9999 160H106C119.255 160 130 149.255 130 136V118C130 108.059 138.058 100 147.999 100H351.998C361.939 100 369.998 108.059 369.998 118V136C369.998 149.255 380.743 160 393.998 160H411.998C421.939 160 429.998 168.059 429.998 178V202C429.998 211.941 421.939 220 411.998 220H387.998C378.057 220 369.998 211.941 369.998 202Z" fill="white"/>
</svg>
